# xmcd
#
# Track frame offsets:
#	150
#	17574
#	40093
#	63099
#	81846
#	112583
#	134931
#	149735
#	172158
#	187208
#	205007
#	234186
#	253473
#	268992
#	286599
#
# Disc length: 4087 seconds
#
# Revision: 1
# Processed by: cddbd v1.5.1PL0 Copyright (c) Steve Scherf et al.
# Submitted via: audiograbber 1.83.01
#
DISCID=e10ff50f
DTITLE=Ultimate Moods To Chillout - CD 6
DYEAR=1900
DGENRE=Ambient
TTITLE0=Mary Mc Dowell - One By One
TTITLE1=Romana - Viterbo
TTITLE2=El Suerte - Colour Festival
TTITLE3=Rajiv Basham Singh - Yatra
TTITLE4=Waititu - Earth Craft
TTITLE5=Tumeric and Bini - One Step Too Far
TTITLE6=Claudia Ponte - Winter Light
TTITLE7=Ross Linley - Otherworld
TTITLE8=Massini - Cathar Rythm
TTITLE9=Claudia Ponte and Mario Barchetta - Just Show Me How To Love You (Tu Cosa
TTITLE9=Fai Stasera)
TTITLE10=Wild Horse - Eagle Spirit
TTITLE11=Massini - In Existence
TTITLE12=Michiko Tanaka - The Soul Of Nu-Jiang
TTITLE13=Claudia Ponte - Heaven Is Here
TTITLE14=Mario Barchetta - Il Mistero Dell ´Amore
EXTD=
EXTT0=
EXTT1=
EXTT2=
EXTT3=
EXTT4=
EXTT5=
EXTT6=
EXTT7=
EXTT8=
EXTT9=
EXTT10=
EXTT11=
EXTT12=
EXTT13=
EXTT14=
PLAYORDER=
